<svg width="927" height="374" viewBox="0 0 927 374" fill="none" xmlns="http://www.w3.org/2000/svg">
<path d="M79.5 0V343.5H926.5" stroke="#6F6F6F"/>
<path d="M4.27148 27H3.18164V19.7754L0.996094 20.5781V19.5938L4.10156 18.4277H4.27148V27ZM12.7969 23.3613C12.7969 24.6309 12.5801 25.5742 12.1465 26.1914C11.7129 26.8086 11.0352 27.1172 10.1133 27.1172C9.20312 27.1172 8.5293 26.8164 8.0918 26.2148C7.6543 25.6094 7.42773 24.707 7.41211 23.5078V22.0605C7.41211 20.8066 7.62891 19.875 8.0625 19.2656C8.49609 18.6562 9.17578 18.3516 10.1016 18.3516C11.0195 18.3516 11.6953 18.6465 12.1289 19.2363C12.5625 19.8223 12.7852 20.7285 12.7969 21.9551V23.3613ZM11.7129 21.8789C11.7129 20.9609 11.584 20.293 11.3262 19.875C11.0684 19.4531 10.6602 19.2422 10.1016 19.2422C9.54688 19.2422 9.14258 19.4512 8.88867 19.8691C8.63477 20.2871 8.50391 20.9297 8.49609 21.7969V23.5312C8.49609 24.4531 8.62891 25.1348 8.89453 25.5762C9.16406 26.0137 9.57031 26.2324 10.1133 26.2324C10.6484 26.2324 11.0449 26.0254 11.3027 25.6113C11.5645 25.1973 11.7012 24.5449 11.7129 23.6543V21.8789ZM19.5352 23.3613C19.5352 24.6309 19.3184 25.5742 18.8848 26.1914C18.4512 26.8086 17.7734 27.1172 16.8516 27.1172C15.9414 27.1172 15.2676 26.8164 14.8301 26.2148C14.3926 25.6094 14.166 24.707 14.1504 23.5078V22.0605C14.1504 20.8066 14.3672 19.875 14.8008 19.2656C15.2344 18.6562 15.9141 18.3516 16.8398 18.3516C17.7578 18.3516 18.4336 18.6465 18.8672 19.2363C19.3008 19.8223 19.5234 20.7285 19.5352 21.9551V23.3613ZM18.4512 21.8789C18.4512 20.9609 18.3223 20.293 18.0645 19.875C17.8066 19.4531 17.3984 19.2422 16.8398 19.2422C16.2852 19.2422 15.8809 19.4512 15.627 19.8691C15.373 20.2871 15.2422 20.9297 15.2344 21.7969V23.5312C15.2344 24.4531 15.3672 25.1348 15.6328 25.5762C15.9023 26.0137 16.3086 26.2324 16.8516 26.2324C17.3867 26.2324 17.7832 26.0254 18.041 25.6113C18.3027 25.1973 18.4395 24.5449 18.4512 23.6543V21.8789ZM26.2734 23.3613C26.2734 24.6309 26.0566 25.5742 25.623 26.1914C25.1895 26.8086 24.5117 27.1172 23.5898 27.1172C22.6797 27.1172 22.0059 26.8164 21.5684 26.2148C21.1309 25.6094 20.9043 24.707 20.8887 23.5078V22.0605C20.8887 20.8066 21.1055 19.875 21.5391 19.2656C21.9727 18.6562 22.6523 18.3516 23.5781 18.3516C24.4961 18.3516 25.1719 18.6465 25.6055 19.2363C26.0391 19.8223 26.2617 20.7285 26.2734 21.9551V23.3613ZM25.1895 21.8789C25.1895 20.9609 25.0605 20.293 24.8027 19.875C24.5449 19.4531 24.1367 19.2422 23.5781 19.2422C23.0234 19.2422 22.6191 19.4512 22.3652 19.8691C22.1113 20.2871 21.9805 20.9297 21.9727 21.7969V23.5312C21.9727 24.4531 22.1055 25.1348 22.3711 25.5762C22.6406 26.0137 23.0469 26.2324 23.5898 26.2324C24.125 26.2324 24.5215 26.0254 24.7793 25.6113C25.041 25.1973 25.1777 24.5449 25.1895 23.6543V21.8789ZM6.2168 97.0781L2.68359 105H1.54688L5.06836 97.3594H0.451172V96.4688H6.2168V97.0781ZM7.94531 100.723L8.37891 96.4688H12.75V97.4707H9.29883L9.04102 99.7969C9.45898 99.5508 9.93359 99.4277 10.4648 99.4277C11.2422 99.4277 11.8594 99.6855 12.3164 100.201C12.7734 100.713 13.002 101.406 13.002 102.281C13.002 103.16 12.7637 103.854 12.2871 104.361C11.8145 104.865 11.1523 105.117 10.3008 105.117C9.54688 105.117 8.93164 104.908 8.45508 104.49C7.97852 104.072 7.70703 103.494 7.64062 102.756H8.66602C8.73242 103.244 8.90625 103.613 9.1875 103.863C9.46875 104.109 9.83984 104.232 10.3008 104.232C10.8047 104.232 11.1992 104.061 11.4844 103.717C11.7734 103.373 11.918 102.898 11.918 102.293C11.918 101.723 11.7617 101.266 11.4492 100.922C11.1406 100.574 10.7285 100.4 10.2129 100.4C9.74023 100.4 9.36914 100.504 9.09961 100.711L8.8125 100.945L7.94531 100.723ZM19.5352 101.361C19.5352 102.631 19.3184 103.574 18.8848 104.191C18.4512 104.809 17.7734 105.117 16.8516 105.117C15.9414 105.117 15.2676 104.816 14.8301 104.215C14.3926 103.609 14.166 102.707 14.1504 101.508V100.061C14.1504 98.8066 14.3672 97.875 14.8008 97.2656C15.2344 96.6562 15.9141 96.3516 16.8398 96.3516C17.7578 96.3516 18.4336 96.6465 18.8672 97.2363C19.3008 97.8223 19.5234 98.7285 19.5352 99.9551V101.361ZM18.4512 99.8789C18.4512 98.9609 18.3223 98.293 18.0645 97.875C17.8066 97.4531 17.3984 97.2422 16.8398 97.2422C16.2852 97.2422 15.8809 97.4512 15.627 97.8691C15.373 98.2871 15.2422 98.9297 15.2344 99.7969V101.531C15.2344 102.453 15.3672 103.135 15.6328 103.576C15.9023 104.014 16.3086 104.232 16.8516 104.232C17.3867 104.232 17.7832 104.025 18.041 103.611C18.3027 103.197 18.4395 102.545 18.4512 101.654V99.8789ZM1.20703 178.723L1.64062 174.469H6.01172V175.471H2.56055L2.30273 177.797C2.7207 177.551 3.19531 177.428 3.72656 177.428C4.50391 177.428 5.12109 177.686 5.57812 178.201C6.03516 178.713 6.26367 179.406 6.26367 180.281C6.26367 181.16 6.02539 181.854 5.54883 182.361C5.07617 182.865 4.41406 183.117 3.5625 183.117C2.80859 183.117 2.19336 182.908 1.7168 182.49C1.24023 182.072 0.96875 181.494 0.902344 180.756H1.92773C1.99414 181.244 2.16797 181.613 2.44922 181.863C2.73047 182.109 3.10156 182.232 3.5625 182.232C4.06641 182.232 4.46094 182.061 4.74609 181.717C5.03516 181.373 5.17969 180.898 5.17969 180.293C5.17969 179.723 5.02344 179.266 4.71094 178.922C4.40234 178.574 3.99023 178.4 3.47461 178.4C3.00195 178.4 2.63086 178.504 2.36133 178.711L2.07422 178.945L1.20703 178.723ZM12.7969 179.361C12.7969 180.631 12.5801 181.574 12.1465 182.191C11.7129 182.809 11.0352 183.117 10.1133 183.117C9.20312 183.117 8.5293 182.816 8.0918 182.215C7.6543 181.609 7.42773 180.707 7.41211 179.508V178.061C7.41211 176.807 7.62891 175.875 8.0625 175.266C8.49609 174.656 9.17578 174.352 10.1016 174.352C11.0195 174.352 11.6953 174.646 12.1289 175.236C12.5625 175.822 12.7852 176.729 12.7969 177.955V179.361ZM11.7129 177.879C11.7129 176.961 11.584 176.293 11.3262 175.875C11.0684 175.453 10.6602 175.242 10.1016 175.242C9.54688 175.242 9.14258 175.451 8.88867 175.869C8.63477 176.287 8.50391 176.93 8.49609 177.797V179.531C8.49609 180.453 8.62891 181.135 8.89453 181.576C9.16406 182.014 9.57031 182.232 10.1133 182.232C10.6484 182.232 11.0449 182.025 11.3027 181.611C11.5645 181.197 11.7012 180.545 11.7129 179.654V177.879ZM19.5352 179.361C19.5352 180.631 19.3184 181.574 18.8848 182.191C18.4512 182.809 17.7734 183.117 16.8516 183.117C15.9414 183.117 15.2676 182.816 14.8301 182.215C14.3926 181.609 14.166 180.707 14.1504 179.508V178.061C14.1504 176.807 14.3672 175.875 14.8008 175.266C15.2344 174.656 15.9141 174.352 16.8398 174.352C17.7578 174.352 18.4336 174.646 18.8672 175.236C19.3008 175.822 19.5234 176.729 19.5352 177.955V179.361ZM18.4512 177.879C18.4512 176.961 18.3223 176.293 18.0645 175.875C17.8066 175.453 17.3984 175.242 16.8398 175.242C16.2852 175.242 15.8809 175.451 15.627 175.869C15.373 176.287 15.2422 176.93 15.2344 177.797V179.531C15.2344 180.453 15.3672 181.135 15.6328 181.576C15.9023 182.014 16.3086 182.232 16.8516 182.232C17.3867 182.232 17.7832 182.025 18.041 181.611C18.3027 181.197 18.4395 180.545 18.4512 179.654V177.879ZM6.29883 261H0.708984V260.221L3.66211 256.939C4.09961 256.443 4.40039 256.041 4.56445 255.732C4.73242 255.42 4.81641 255.098 4.81641 254.766C4.81641 254.32 4.68164 253.955 4.41211 253.67C4.14258 253.385 3.7832 253.242 3.33398 253.242C2.79492 253.242 2.375 253.396 2.07422 253.705C1.77734 254.01 1.62891 254.436 1.62891 254.982H0.544922C0.544922 254.197 0.796875 253.562 1.30078 253.078C1.80859 252.594 2.48633 252.352 3.33398 252.352C4.12695 252.352 4.75391 252.561 5.21484 252.979C5.67578 253.393 5.90625 253.945 5.90625 254.637C5.90625 255.477 5.37109 256.477 4.30078 257.637L2.01562 260.115H6.29883V261ZM7.94531 256.723L8.37891 252.469H12.75V253.471H9.29883L9.04102 255.797C9.45898 255.551 9.93359 255.428 10.4648 255.428C11.2422 255.428 11.8594 255.686 12.3164 256.201C12.7734 256.713 13.002 257.406 13.002 258.281C13.002 259.16 12.7637 259.854 12.2871 260.361C11.8145 260.865 11.1523 261.117 10.3008 261.117C9.54688 261.117 8.93164 260.908 8.45508 260.49C7.97852 260.072 7.70703 259.494 7.64062 258.756H8.66602C8.73242 259.244 8.90625 259.613 9.1875 259.863C9.46875 260.109 9.83984 260.232 10.3008 260.232C10.8047 260.232 11.1992 260.061 11.4844 259.717C11.7734 259.373 11.918 258.898 11.918 258.293C11.918 257.723 11.7617 257.266 11.4492 256.922C11.1406 256.574 10.7285 256.4 10.2129 256.4C9.74023 256.4 9.36914 256.504 9.09961 256.711L8.8125 256.945L7.94531 256.723ZM19.5352 257.361C19.5352 258.631 19.3184 259.574 18.8848 260.191C18.4512 260.809 17.7734 261.117 16.8516 261.117C15.9414 261.117 15.2676 260.816 14.8301 260.215C14.3926 259.609 14.166 258.707 14.1504 257.508V256.061C14.1504 254.807 14.3672 253.875 14.8008 253.266C15.2344 252.656 15.9141 252.352 16.8398 252.352C17.7578 252.352 18.4336 252.646 18.8672 253.236C19.3008 253.822 19.5234 254.729 19.5352 255.955V257.361ZM18.4512 255.879C18.4512 254.961 18.3223 254.293 18.0645 253.875C17.8066 253.453 17.3984 253.242 16.8398 253.242C16.2852 253.242 15.8809 253.451 15.627 253.869C15.373 254.287 15.2422 254.93 15.2344 255.797V257.531C15.2344 258.453 15.3672 259.135 15.6328 259.576C15.9023 260.014 16.3086 260.232 16.8516 260.232C17.3867 260.232 17.7832 260.025 18.041 259.611C18.3027 259.197 18.4395 258.545 18.4512 257.654V255.879ZM6.05859 335.361C6.05859 336.631 5.8418 337.574 5.4082 338.191C4.97461 338.809 4.29688 339.117 3.375 339.117C2.46484 339.117 1.79102 338.816 1.35352 338.215C0.916016 337.609 0.689453 336.707 0.673828 335.508V334.061C0.673828 332.807 0.890625 331.875 1.32422 331.266C1.75781 330.656 2.4375 330.352 3.36328 330.352C4.28125 330.352 4.95703 330.646 5.39062 331.236C5.82422 331.822 6.04688 332.729 6.05859 333.955V335.361ZM4.97461 333.879C4.97461 332.961 4.8457 332.293 4.58789 331.875C4.33008 331.453 3.92188 331.242 3.36328 331.242C2.80859 331.242 2.4043 331.451 2.15039 331.869C1.89648 332.287 1.76562 332.93 1.75781 333.797V335.531C1.75781 336.453 1.89062 337.135 2.15625 337.576C2.42578 338.014 2.83203 338.232 3.375 338.232C3.91016 338.232 4.30664 338.025 4.56445 337.611C4.82617 337.197 4.96289 336.545 4.97461 335.654V333.879Z" fill="black"/>
<line x1="75" y1="27.5" x2="84" y2="27.5" stroke="#6F6F6F"/>
<line x1="75" y1="106.5" x2="84" y2="106.5" stroke="#6F6F6F"/>
<line x1="75" y1="264.5" x2="84" y2="264.5" stroke="#6F6F6F"/>
<line x1="151.5" y1="339" x2="151.5" y2="348" stroke="#6F6F6F"/>
<line x1="223.5" y1="339" x2="223.5" y2="348" stroke="#6F6F6F"/>
<line x1="295.5" y1="339" x2="295.5" y2="348" stroke="#6F6F6F"/>
<line x1="367.5" y1="339" x2="367.5" y2="348" stroke="#6F6F6F"/>
<line x1="439.5" y1="339" x2="439.5" y2="348" stroke="#6F6F6F"/>
<line x1="583.5" y1="339" x2="583.5" y2="348" stroke="#6F6F6F"/>
<line x1="511.5" y1="339" x2="511.5" y2="348" stroke="#6F6F6F"/>
<line x1="655.5" y1="339" x2="655.5" y2="348" stroke="#6F6F6F"/>
<line x1="727.5" y1="339" x2="727.5" y2="348" stroke="#6F6F6F"/>
<line x1="799.5" y1="339" x2="799.5" y2="348" stroke="#6F6F6F"/>
<line x1="871.5" y1="339" x2="871.5" y2="348" stroke="#6F6F6F"/>
<line x1="75" y1="185.5" x2="84" y2="185.5" stroke="#6F6F6F"/>
<line x1="75" y1="343.5" x2="84" y2="343.5" stroke="#6F6F6F"/>
<line x1="79.5" y1="340" x2="79.5" y2="348" stroke="#6F6F6F"/>
<path d="M86.0586 366.361C86.0586 367.631 85.8418 368.574 85.4082 369.191C84.9746 369.809 84.2969 370.117 83.375 370.117C82.4648 370.117 81.791 369.816 81.3535 369.215C80.916 368.609 80.6895 367.707 80.6738 366.508V365.061C80.6738 363.807 80.8906 362.875 81.3242 362.266C81.7578 361.656 82.4375 361.352 83.3633 361.352C84.2812 361.352 84.957 361.646 85.3906 362.236C85.8242 362.822 86.0469 363.729 86.0586 364.955V366.361ZM84.9746 364.879C84.9746 363.961 84.8457 363.293 84.5879 362.875C84.3301 362.453 83.9219 362.242 83.3633 362.242C82.8086 362.242 82.4043 362.451 82.1504 362.869C81.8965 363.287 81.7656 363.93 81.7578 364.797V366.531C81.7578 367.453 81.8906 368.135 82.1562 368.576C82.4258 369.014 82.832 369.232 83.375 369.232C83.9102 369.232 84.3066 369.025 84.5645 368.611C84.8262 368.197 84.9629 367.545 84.9746 366.654V364.879Z" fill="black"/>
<path d="M295.285 365.207H296.1C296.611 365.199 297.014 365.064 297.307 364.803C297.6 364.541 297.746 364.188 297.746 363.742C297.746 362.742 297.248 362.242 296.252 362.242C295.783 362.242 295.408 362.377 295.127 362.646C294.85 362.912 294.711 363.266 294.711 363.707H293.627C293.627 363.031 293.873 362.471 294.365 362.025C294.861 361.576 295.49 361.352 296.252 361.352C297.057 361.352 297.688 361.564 298.145 361.99C298.602 362.416 298.83 363.008 298.83 363.766C298.83 364.137 298.709 364.496 298.467 364.844C298.229 365.191 297.902 365.451 297.488 365.623C297.957 365.771 298.318 366.018 298.572 366.361C298.83 366.705 298.959 367.125 298.959 367.621C298.959 368.387 298.709 368.994 298.209 369.443C297.709 369.893 297.059 370.117 296.258 370.117C295.457 370.117 294.805 369.9 294.301 369.467C293.801 369.033 293.551 368.461 293.551 367.75H294.641C294.641 368.199 294.787 368.559 295.08 368.828C295.373 369.098 295.766 369.232 296.258 369.232C296.781 369.232 297.182 369.096 297.459 368.822C297.736 368.549 297.875 368.156 297.875 367.645C297.875 367.148 297.723 366.768 297.418 366.502C297.113 366.236 296.674 366.1 296.1 366.092H295.285V365.207Z" fill="black"/>
<path d="M510.963 361.463V362.383H510.764C509.92 362.398 509.248 362.648 508.748 363.133C508.248 363.617 507.959 364.299 507.881 365.178C508.33 364.662 508.943 364.404 509.721 364.404C510.463 364.404 511.055 364.666 511.496 365.189C511.941 365.713 512.164 366.389 512.164 367.217C512.164 368.096 511.924 368.799 511.443 369.326C510.967 369.854 510.326 370.117 509.521 370.117C508.705 370.117 508.043 369.805 507.535 369.18C507.027 368.551 506.773 367.742 506.773 366.754V366.338C506.773 364.768 507.107 363.568 507.775 362.74C508.447 361.908 509.445 361.482 510.77 361.463H510.963ZM509.539 365.307C509.168 365.307 508.826 365.418 508.514 365.641C508.201 365.863 507.984 366.143 507.863 366.479V366.877C507.863 367.58 508.021 368.146 508.338 368.576C508.654 369.006 509.049 369.221 509.521 369.221C510.01 369.221 510.393 369.041 510.67 368.682C510.951 368.322 511.092 367.852 511.092 367.27C511.092 366.684 510.949 366.211 510.664 365.852C510.383 365.488 510.008 365.307 509.539 365.307Z" fill="black"/>
<path d="M723.863 366.25C723.637 366.52 723.365 366.736 723.049 366.9C722.736 367.064 722.393 367.146 722.018 367.146C721.525 367.146 721.096 367.025 720.729 366.783C720.365 366.541 720.084 366.201 719.885 365.764C719.686 365.322 719.586 364.836 719.586 364.305C719.586 363.734 719.693 363.221 719.908 362.764C720.127 362.307 720.436 361.957 720.834 361.715C721.232 361.473 721.697 361.352 722.229 361.352C723.072 361.352 723.736 361.668 724.221 362.301C724.709 362.93 724.953 363.789 724.953 364.879V365.195C724.953 366.855 724.625 368.068 723.969 368.834C723.312 369.596 722.322 369.986 720.998 370.006H720.787V369.092H721.016C721.91 369.076 722.598 368.844 723.078 368.395C723.559 367.941 723.82 367.227 723.863 366.25ZM722.193 366.25C722.557 366.25 722.891 366.139 723.195 365.916C723.504 365.693 723.729 365.418 723.869 365.09V364.656C723.869 363.945 723.715 363.367 723.406 362.922C723.098 362.477 722.707 362.254 722.234 362.254C721.758 362.254 721.375 362.438 721.086 362.805C720.797 363.168 720.652 363.648 720.652 364.246C720.652 364.828 720.791 365.309 721.068 365.688C721.35 366.062 721.725 366.25 722.193 366.25Z" fill="black"/>
<path d="M155.271 370H154.182V362.775L151.996 363.578V362.594L155.102 361.428H155.271V370Z" fill="black"/>
<path d="M369.285 367.135H370.469V368.02H369.285V370H368.195V368.02H364.311V367.381L368.131 361.469H369.285V367.135ZM365.541 367.135H368.195V362.951L368.066 363.186L365.541 367.135Z" fill="black"/>
<path d="M583.217 362.078L579.684 370H578.547L582.068 362.359H577.451V361.469H583.217V362.078Z" fill="black"/>
<path d="M794.271 370H793.182V362.775L790.996 363.578V362.594L794.102 361.428H794.271V370ZM802.797 366.361C802.797 367.631 802.58 368.574 802.146 369.191C801.713 369.809 801.035 370.117 800.113 370.117C799.203 370.117 798.529 369.816 798.092 369.215C797.654 368.609 797.428 367.707 797.412 366.508V365.061C797.412 363.807 797.629 362.875 798.062 362.266C798.496 361.656 799.176 361.352 800.102 361.352C801.02 361.352 801.695 361.646 802.129 362.236C802.562 362.822 802.785 363.729 802.797 364.955V366.361ZM801.713 364.879C801.713 363.961 801.584 363.293 801.326 362.875C801.068 362.453 800.66 362.242 800.102 362.242C799.547 362.242 799.143 362.451 798.889 362.869C798.635 363.287 798.504 363.93 798.496 364.797V366.531C798.496 367.453 798.629 368.135 798.895 368.576C799.164 369.014 799.57 369.232 800.113 369.232C800.648 369.232 801.045 369.025 801.303 368.611C801.564 368.197 801.701 367.545 801.713 366.654V364.879Z" fill="black"/>
<path d="M228.299 370H222.709V369.221L225.662 365.939C226.1 365.443 226.4 365.041 226.564 364.732C226.732 364.42 226.816 364.098 226.816 363.766C226.816 363.32 226.682 362.955 226.412 362.67C226.143 362.385 225.783 362.242 225.334 362.242C224.795 362.242 224.375 362.396 224.074 362.705C223.777 363.01 223.629 363.436 223.629 363.982H222.545C222.545 363.197 222.797 362.562 223.301 362.078C223.809 361.594 224.486 361.352 225.334 361.352C226.127 361.352 226.754 361.561 227.215 361.979C227.676 362.393 227.906 362.945 227.906 363.637C227.906 364.477 227.371 365.477 226.301 366.637L224.016 369.115H228.299V370Z" fill="black"/>
<path d="M436.207 365.723L436.641 361.469H441.012V362.471H437.561L437.303 364.797C437.721 364.551 438.195 364.428 438.727 364.428C439.504 364.428 440.121 364.686 440.578 365.201C441.035 365.713 441.264 366.406 441.264 367.281C441.264 368.16 441.025 368.854 440.549 369.361C440.076 369.865 439.414 370.117 438.562 370.117C437.809 370.117 437.193 369.908 436.717 369.49C436.24 369.072 435.969 368.494 435.902 367.756H436.928C436.994 368.244 437.168 368.613 437.449 368.863C437.73 369.109 438.102 369.232 438.562 369.232C439.066 369.232 439.461 369.061 439.746 368.717C440.035 368.373 440.18 367.898 440.18 367.293C440.18 366.723 440.023 366.266 439.711 365.922C439.402 365.574 438.99 365.4 438.475 365.4C438.002 365.4 437.631 365.504 437.361 365.711L437.074 365.945L436.207 365.723Z" fill="black"/>
<path d="M653.883 363.695C653.883 364.121 653.77 364.5 653.543 364.832C653.32 365.164 653.018 365.424 652.635 365.611C653.08 365.803 653.432 366.082 653.689 366.449C653.951 366.816 654.082 367.232 654.082 367.697C654.082 368.436 653.832 369.023 653.332 369.461C652.836 369.898 652.182 370.117 651.369 370.117C650.549 370.117 649.891 369.898 649.395 369.461C648.902 369.02 648.656 368.432 648.656 367.697C648.656 367.236 648.781 366.82 649.031 366.449C649.285 366.078 649.635 365.797 650.08 365.605C649.701 365.418 649.402 365.158 649.184 364.826C648.965 364.494 648.855 364.117 648.855 363.695C648.855 362.977 649.086 362.406 649.547 361.984C650.008 361.562 650.615 361.352 651.369 361.352C652.119 361.352 652.725 361.562 653.186 361.984C653.65 362.406 653.883 362.977 653.883 363.695ZM652.998 367.674C652.998 367.197 652.846 366.809 652.541 366.508C652.24 366.207 651.846 366.057 651.357 366.057C650.869 366.057 650.477 366.205 650.18 366.502C649.887 366.799 649.74 367.189 649.74 367.674C649.74 368.158 649.883 368.539 650.168 368.816C650.457 369.094 650.857 369.232 651.369 369.232C651.877 369.232 652.275 369.094 652.564 368.816C652.854 368.535 652.998 368.154 652.998 367.674ZM651.369 362.242C650.943 362.242 650.598 362.375 650.332 362.641C650.07 362.902 649.939 363.26 649.939 363.713C649.939 364.146 650.068 364.498 650.326 364.768C650.588 365.033 650.936 365.166 651.369 365.166C651.803 365.166 652.148 365.033 652.406 364.768C652.668 364.498 652.799 364.146 652.799 363.713C652.799 363.279 652.664 362.926 652.395 362.652C652.125 362.379 651.783 362.242 651.369 362.242Z" fill="black"/>
<path d="M872.271 370H871.182V362.775L868.996 363.578V362.594L872.102 361.428H872.271V370ZM879.01 370H877.92V362.775L875.734 363.578V362.594L878.84 361.428H879.01V370Z" fill="black"/>
<path d="M79 325L148.622 261.5L218.245 275.5L287.867 257L357.49 300.5L427.112 313.5H496.735L566.357 285.5L635.98 275.5L705.602 234L775.225 222.5L867 179" stroke="#2F80ED"/>
<path d="M79 265L148.617 240.5L218.235 207L287.853 218.5L357.47 230.5L427.088 203L496.706 200.5L566.323 181L635.941 135L705.559 114L775.176 119L868 74" stroke="#6FA1CF"/>
</svg>
